<?xml version="1.0" encoding="UTF-8" standalone="no"?>
<svg
    id="svg_ballon_groot"
    width="68.582207mm"
    height="89.978058mm"
    viewBox="0 0 68.582206 89.978058"
    xmlns="http://www.w3.org/2000/svg"
    xmlns:xlink="http://www.w3.org/1999/xlink"
>
    <defs>
        <linearGradient id="svg_ballon_groot_gradient_def">
            <stop id="svg_ballon_groot_gradient_color_highlight" style="stop-color: #ffd66d;" />
            <stop id="svg_ballon_groot_gradient_color_base"      style="stop-color: #f78d1e;" offset="1" />
        </linearGradient>
        <radialGradient
            id="svg_ballon_groot_gradient"
            xlink:href="#svg_ballon_groot_gradient_def"
            gradientUnits="userSpaceOnUse"
            gradientTransform="matrix(-1.7254607e-7,1.2521023,-1.0347411,-1.425926e-7,211.43782,61.288152)"
            r="34.291103"
            fy="140.60385"
            fx="59.022301"
            cy="140.60385"
            cx="59.022301"
        />
    </defs>
    <g transform="translate(-18.561907,-106.237232)">
        <path
            d="m 49.153945,196.05599 c -0.08906,-0.0891 0.203176,-0.80885 0.649415,-1.59954 0.446238,-0.79069 0.754342,-1.49462 0.684678,-1.56428 -0.06966,-0.0697 -0.986147,-0.36484 -2.036633,-0.65594 -7.227958,-2.00297 -15.034376,-8.41824 -20.78731,-17.08289 -3.190457,-4.80523 -5.868421,-10.96067 -7.403983,-17.01843 -1.086899,-4.28779 -1.491174,-7.35395 -1.641859,-12.4524 -0.123882,-4.1916 -0.06605,-5.35408 0.402581,-8.09178 2.238177,-13.07533 10.338273,-24.04112 21.20473,-28.70665 18.747417,-8.04924 39.29051,2.89421 45.486015,24.23072 1.050615,3.61818 1.439947,6.67449 1.432425,11.24479 -0.0292,17.7403 -8.577516,35.05094 -21.70621,43.95583 -3.136585,2.12748 -7.739123,4.19833 -9.330909,4.19833 -0.846285,0 -0.89104,0.61943 -0.150362,2.08109 0.373718,0.73749 0.679487,1.40439 0.679487,1.48199 0,0.19769 -7.283821,0.17741 -7.482065,-0.0208 z"
            style="fill: url(#svg_ballon_groot_gradient);"
        />
    </g>
</svg>
